<?xml version="1.0"?><!DOCTYPE svg  PUBLIC '-//W3C//DTD SVG 1.1//EN'  'http://www.w3.org/Graphics/SVG/1.1/DTD/svg11.dtd'><svg xmlns="http://www.w3.org/2000/svg" xmlns:xlink="http://www.w3.org/1999/xlink" version="1.1" id="Layer_1" width="512px" height="512px" viewBox="0 0 512 512" enable-background="new 0 0 512 512" xml:space="preserve"><g><path d="M487.932,209.855l-45.858-9.826c-1.121-0.244-1.834-0.882-2.174-1.978c-3.371-10.697-7.71-21.161-12.904-31.104   c-0.526-1.021-0.484-1.978,0.139-2.935l25.494-39.377c4.274-6.614,3.381-15.11-2.18-20.683l-42.413-42.407   c-5.562-5.571-14.063-6.465-20.667-2.18l-39.397,25.5c-0.968,0.627-1.925,0.659-2.935,0.138   c-9.942-5.189-20.406-9.517-31.082-12.888c-1.096-0.341-1.744-1.053-1.983-2.169l-9.82-45.885   c-1.648-7.688-8.294-13.059-16.163-13.059h-59.975c-7.868,0-14.515,5.37-16.157,13.059l-9.82,45.885   c-0.245,1.116-0.894,1.828-1.978,2.169c-10.688,3.371-21.146,7.709-31.083,12.888c-1.025,0.532-1.988,0.489-2.945-0.127   l-39.397-25.511c-6.614-4.274-15.11-3.382-20.672,2.19l-42.396,42.396c-5.572,5.562-6.466,14.068-2.19,20.672l25.499,39.388   c0.628,0.968,0.67,1.935,0.139,2.945c-5.189,9.953-9.539,20.427-12.898,31.093c-0.341,1.096-1.053,1.744-2.17,1.978l-45.873,9.826   C16.37,211.493,11,218.149,11,226.019v59.963c0,7.858,5.376,14.505,13.069,16.152l45.862,9.815   c1.122,0.255,1.835,0.894,2.175,1.988c3.365,10.687,7.704,21.15,12.904,31.104c0.526,1.011,0.479,1.968-0.139,2.935l-25.499,39.388   c-4.275,6.604-3.376,15.1,2.185,20.661l42.402,42.407c5.566,5.572,14.068,6.465,20.666,2.19l39.398-25.5   c0.962-0.616,1.925-0.67,2.93-0.138c9.942,5.179,20.405,9.527,31.113,12.898c1.085,0.341,1.729,1.053,1.968,2.169l9.825,45.874   c1.648,7.699,8.295,13.069,16.158,13.069h59.969c7.863,0,14.504-5.37,16.152-13.069l9.825-45.874   c0.234-1.105,0.883-1.818,1.973-2.158c10.714-3.382,21.177-7.72,31.109-12.898c1.016-0.532,1.973-0.489,2.935,0.127l39.393,25.511   c6.609,4.264,15.1,3.36,20.666-2.201l42.402-42.407c5.562-5.562,6.46-14.058,2.186-20.661l-25.5-39.397   c-0.617-0.957-0.664-1.914-0.139-2.925c5.189-9.942,9.528-20.417,12.894-31.104c0.346-1.085,1.053-1.733,2.175-1.978l45.868-9.826   c7.694-1.647,13.074-8.283,13.074-16.152v-59.974C501,218.139,495.625,211.493,487.932,209.855z M487.39,285.981   c0,1.425-0.904,2.542-2.313,2.85l-45.868,9.826c-5.891,1.255-10.496,5.444-12.303,11.197c-3.127,9.932-7.157,19.65-11.984,28.892   c-2.786,5.349-2.488,11.569,0.787,16.62l25.494,39.398c0.775,1.201,0.627,2.626-0.389,3.646l-42.407,42.407   c-1.01,1.011-2.44,1.159-3.637,0.383l-39.393-25.499c-5.056-3.275-11.276-3.563-16.626-0.776   c-9.225,4.817-18.949,8.847-28.902,11.984c-5.752,1.808-9.937,6.412-11.197,12.303l-9.814,45.863   c-0.303,1.403-1.425,2.308-2.85,2.308h-59.969c-1.431,0-2.552-0.904-2.855-2.308l-9.82-45.874   c-1.265-5.901-5.449-10.495-11.197-12.303c-9.937-3.137-19.656-7.156-28.896-11.984c-2.436-1.266-5.051-1.903-7.656-1.903   c-3.116,0-6.21,0.903-8.965,2.68L117.23,441.19c-1.201,0.787-2.637,0.628-3.642-0.372l-42.402-42.407   c-1.016-1.021-1.17-2.445-0.388-3.646l25.494-39.398c3.275-5.062,3.573-11.271,0.781-16.62   c-4.827-9.241-8.857-18.971-11.983-28.892c-1.809-5.753-6.407-9.942-12.309-11.208l-45.863-9.815   c-1.404-0.308-2.308-1.425-2.308-2.85v-59.963c0-1.446,0.909-2.563,2.308-2.86l45.873-9.815   c5.892-1.266,10.485-5.444,12.304-11.197c3.126-9.921,7.156-19.641,11.984-28.892c2.786-5.349,2.499-11.559-0.776-16.631   l-25.505-39.397c-0.782-1.202-0.633-2.638,0.388-3.647l42.402-42.396c1.01-1.011,2.44-1.17,3.642-0.394l39.397,25.499   c5.063,3.297,11.277,3.584,16.632,0.787c9.24-4.817,18.96-8.847,28.892-11.974c5.742-1.818,9.927-6.412,11.187-12.303l9.825-45.885   c0.298-1.403,1.414-2.308,2.85-2.308h59.975c1.436,0,2.552,0.904,2.85,2.308l9.825,45.885c1.255,5.88,5.435,10.484,11.187,12.303   c0.011,0,0.011,0,0.011,0c9.922,3.116,19.641,7.146,28.882,11.974c5.349,2.797,11.559,2.499,16.625-0.787l39.403-25.499   c1.202-0.776,2.638-0.628,3.642,0.383l42.408,42.407c1.016,1.01,1.164,2.445,0.388,3.647l-25.499,39.387   c-3.275,5.062-3.573,11.282-0.777,16.631c4.822,9.241,8.858,18.96,11.984,28.902c1.809,5.742,6.407,9.932,12.304,11.197   l45.857,9.815c1.403,0.298,2.313,1.414,2.313,2.85V285.981z"/><path d="M390.559,175.816c1.94-4.7,0.872-10.06-2.722-13.653l-50.713-50.701c-4.881-4.881-12.818-4.881-17.705,0l-9.878,9.868   c-17.024-6.774-35.007-10.262-53.541-10.262c-79.912,0-144.927,65.015-144.927,144.927S176.088,400.91,256,400.91   s144.927-65.003,144.927-144.915c0-25.83-6.773-50.755-19.63-72.799C385.396,182.42,388.916,179.762,390.559,175.816z    M328.277,121.851l48.075,48.086h-25.936c-3.76,0-6.806,3.041-6.806,6.806v176.966c-9.161,8.22-19.471,15.185-30.668,20.597   V176.742c0-3.765-3.052-6.806-6.811-6.806h-25.941L328.277,121.851z M124.69,255.995c0-72.405,58.905-131.315,131.31-131.315   c14.802,0,29.2,2.456,42.96,7.23l-30.253,30.253c-3.594,3.604-4.657,8.964-2.711,13.653c1.945,4.689,6.486,7.731,11.569,7.731   h21.762v196.383c-4.679,1.637-9.48,3.02-14.382,4.125v-70.395c0-7.114-5.796-12.909-12.915-12.909h-32.065   c-7.125,0-12.915,5.795-12.915,12.909v70.395c-4.902-1.116-9.697-2.488-14.377-4.125V245.903c0-7.114-5.795-12.909-12.914-12.909   h-32.071c-7.114,0-12.909,5.795-12.909,12.909v93.641C135.988,316.83,124.69,287.704,124.69,255.995z M199.057,374.305   c-11.197-5.412-21.507-12.377-30.667-20.597V246.605h30.667V374.305z M240.666,386.385v-72.021h30.668v72.021   c-5.035,0.585-10.145,0.925-15.334,0.925S245.696,386.97,240.666,386.385z M357.222,339.554V183.548h8.21   c14.275,21.512,21.884,46.458,21.884,72.447C387.315,287.704,376.012,316.83,357.222,339.554z"/></g></svg>