<?xml version="1.0"?><svg viewBox="0 0 480 480" xmlns="http://www.w3.org/2000/svg"><g data-name="16-information" id="_16-information"><circle cx="152" cy="200" r="8"/><circle cx="184" cy="184" r="8"/><circle cx="152" cy="168" r="8"/><path d="M440,8H264a32.036,32.036,0,0,0-32,32V58.134A151.267,151.267,0,0,0,160,40C76.187,40,8,108.187,8,192S76.187,344,160,344a151.138,151.138,0,0,0,85.8-26.6L392.2,463.8A28,28,0,1,0,431.8,424.2L285.4,277.8A151.13,151.13,0,0,0,312,192c0-2.66-.076-5.332-.214-8H440a32.036,32.036,0,0,0,32-32V40A32.036,32.036,0,0,0,440,8ZM232,184H215.419a55.708,55.708,0,0,0-10.586-25.519l8.824-8.824-11.314-11.314-8.824,8.824A55.708,55.708,0,0,0,168,136.581V112H152v24.581a55.708,55.708,0,0,0-25.519,10.586l-8.824-8.824-11.314,11.314,8.824,8.824A55.708,55.708,0,0,0,104.581,184H80v16h24.581a55.708,55.708,0,0,0,10.586,25.519l-8.824,8.824,11.314,11.314,8.824-8.824A55.708,55.708,0,0,0,152,247.419V272h16V247.419a55.708,55.708,0,0,0,25.519-10.586l8.824,8.824,11.314-11.314-8.824-8.824A55.708,55.708,0,0,0,215.419,200H232v8c-.195,6.192,7.388,10.256,12.438,6.656l19.085-12.723A104.011,104.011,0,1,1,232,116.962Zm-72,48a40,40,0,1,1,40-40A40.045,40.045,0,0,1,160,232ZM285.174,334.14l16.97-16.97,20.685,20.687L305.86,354.826ZM424,444a12,12,0,0,1-20.483,8.482L317.174,366.14l16.969-16.969,86.341,86.347A11.918,11.918,0,0,1,424,444ZM290.83,305.856l-16.97,16.97-15.252-15.252A153.3,153.3,0,0,0,275.579,290.6ZM296,192c0,74.99-61.009,136-136,136S24,266.99,24,192,85.009,56,160,56a135.241,135.241,0,0,1,72,20.624V95.965A120.023,120.023,0,1,0,280,192c0-.353-.01-.694-.013-1.043L290.422,184h5.34C295.917,186.666,296,189.339,296,192Zm160-40a16.019,16.019,0,0,1-16,16H288a8,8,0,0,0-4.437,1.344L248,193.052V40a16.019,16.019,0,0,1,16-16H440a16.019,16.019,0,0,1,16,16Z"/><rect height="16" width="48" x="272" y="56"/><rect height="16" width="96" x="336" y="56"/><rect height="16" width="128" x="272" y="88"/><rect height="16" width="64" x="272" y="120"/><rect height="16" width="80" x="352" y="120"/></g></svg>