<?xml version="1.0"?><svg xmlns="http://www.w3.org/2000/svg" width="512" height="512" viewBox="0 0 512 512" fill="none"><path d="M53 53V459H459M142.016 190.164C137.887 186.772 132.592 184.734 126.818 184.734C113.628 184.734 102.936 195.37 102.936 208.489C102.936 221.609 113.628 232.245 126.818 232.245C140.008 232.245 150.701 221.609 150.701 208.489C150.701 201.113 147.32 194.521 142.016 190.164ZM142.016 190.164L213.663 105.879M213.663 105.879C217.792 109.271 223.087 111.309 228.861 111.309C236.277 111.309 242.904 107.946 247.284 102.67M213.663 105.879C208.359 101.522 204.979 94.93 204.979 87.5532C204.979 74.4335 215.671 63.7979 228.861 63.7979C242.051 63.7979 252.743 74.4335 252.743 87.5532C252.743 93.2961 250.695 98.563 247.284 102.67M247.284 102.67L310.884 143.702M310.884 143.702C308.441 147.429 307.021 151.879 307.021 156.66C307.021 169.779 317.714 180.415 330.904 180.415C344.094 180.415 354.786 169.779 354.786 156.66C354.786 151.879 353.367 147.429 350.924 143.702M310.884 143.702C315.145 137.201 322.52 132.904 330.904 132.904C339.288 132.904 346.663 137.201 350.924 143.702M350.924 143.702L416.694 102.67M416.694 102.67C421.075 107.946 427.701 111.309 435.118 111.309C448.308 111.309 459 100.673 459 87.5532C459 74.4335 448.308 63.7979 435.118 63.7979C421.928 63.7979 411.235 74.4335 411.235 87.5532C411.235 93.2961 413.284 98.563 416.694 102.67ZM102.936 327.266H150.701V417.968H102.936V327.266ZM204.979 206.33H252.743V417.968H204.979V206.33ZM307.021 258.16H354.786V417.968H307.021V258.16ZM409.064 206.33H456.829V417.968H409.064V206.33Z" stroke="black" stroke-width="13.5"/></svg>